<?xml version="1.0" encoding="UTF-8"?>
<svg id="Layer_1" xmlns="http://www.w3.org/2000/svg" version="1.1" viewBox="0 0 1024 1024">
  <!-- Generator: Adobe Illustrator 29.3.1, SVG Export Plug-In . SVG Version: 2.1.0 Build 151)  -->
  <defs>
    <style>
      .st0 {
      fill: #fff;
      }

      .st1 {
      fill: none;
      }
    </style>
  </defs>
  <path class="st1"
    d="M788.11,468.97l-34.5,33.56-44.11-53.25c-1.28-1.53-1.36-3.73-.22-5.37l16.2-23.01c1.22-1.76,1.02-4.14-.5-5.67l-20.46-20.52c-1.6-1.6-4.13-1.78-5.93-.43l-20.22,15.19c-1.78,1.34-4.3,1.17-5.91-.4l-59.27-58.5c-1.58-1.56-1.76-4.02-.44-5.8l16.07-21.63c1.38-1.86,1.09-4.48-.66-6l-21.4-18.59c-1.79-1.56-4.48-1.47-6.16.18l-19.97,19.73c-1.65,1.61-4.26,1.75-6.05.29l-56.36-45.79,34.58-36.88,39.92,32.57c1.71,1.38,4.17,1.35,5.83-.08l17.78-15.29c2.48-2.15,6.18-2.15,8.68-.01l49.64,42.59c.12.1.23.21.36.32,2.3,2.27,2.59,5.92.62,8.54l-13.04,17.38c-1.34,1.78-1.14,4.26.43,5.81l32.31,31.98c1.58,1.56,4.08,1.73,5.88.43l17.54-12.92c2.78-2.04,6.69-1.62,8.97.98l43.02,49.12c2.16,2.46,2.16,6.14,0,8.59l-15.45,17.6c-1.45,1.64-1.49,4.08-.08,5.76l32.91,39.54h0Z" />
  <path class="st0"
    d="M592.17,666.7l-17.56,155.01-29.01,8.66c-5.07,3.7-12.31,1.58-14.48-4.24l-30.96-83.28-.05-.18c-4.07-12.22-7.33-24.66-9.91-37.11-7.51,0-14.89-1.17-22.27-2.12-7.47-.81-14.53-3.02-21.77-4.55-8.46,10.91-7.64,11.97-17.37,22.2-12.76-4.24-24.94-9.87-36.57-16.5-6.97-3.88-13.35-8.75-19.01-14.38l-3.8-3.79c-.14-.99.09-2.07.72-2.97l4.07-9.65c1.22-1.71,1.09-4.01-.36-5.59l-21.23-22.68c-1.49-1.62-4.03-1.89-5.88-.72l-13.12,6.27c-5.43-5.41-10.18-11.63-14.03-18.4-6.65-11.5-12.4-23.49-16.66-36.16,10.27-9.69,10.72-9.49,21.76-17.87-1.54-7.12-3.71-14.11-4.57-21.42-.95-7.35-2.13-14.61-2.13-22.09-12.45-2.48-25.12-5.82-37.39-9.78l-.36-.14-84.46-30.39c-5.93-2.12-8.1-9.24-4.35-14.2l8.78-28.54,156.78-18.12h.05c.09.14.23.23.36.36l47.7,38.86c2.49,2.03,6.07,2.03,8.51-.09l17.65-15.15c1.63-1.49,4.21-1.49,5.88,0l34.58,29.62c1.77,1.53,2.04,4.15.63,6.04l-12.63,16.77c-1.95,2.61-1.67,6.31.63,8.57l45.89,45.4c2.31,2.3,6.02,2.61,8.6.63l17.02-12.49c1.95-1.35,4.57-1.04,6.07.72l30.01,34.13c1.4,1.67,1.4,4.19-.09,5.82l-15.25,17.45c-2.08,2.39-2.17,6-.09,8.43l39.29,47.25c.09.14.23.27.36.41h0Z" />
  <path class="st0"
    d="M592.73,268.63c1.7,1.39,4.16,1.35,5.83-.08l17.77-15.29c2.49-2.14,6.19-2.14,8.68,0l49.64,42.59c.12.1.24.21.35.32,2.3,2.28,2.6,5.92.63,8.54l-13.04,17.37c-1.33,1.78-1.15,4.25.43,5.82l32.3,31.97c1.58,1.57,4.08,1.75,5.88.43l17.55-12.91c2.78-2.05,6.69-1.63,8.96.97l43.03,49.13c2.16,2.47,2.16,6.13,0,8.6l-15.45,17.59c-1.45,1.64-1.48,4.08-.08,5.77l32.92,39.53c4.19-4.18,8.74-8.79,9.65-9.7,41.31-40.89,63.1-167.67-1.78-232.34l-.08-.08-.08-.08c-65.34-64.21-191.92-41.14-233.23-.25-.93.92-5.58,5.41-9.8,9.55l39.93,32.56h0Z" />
  <path class="st0"
    d="M709.51,449.28c-1.28-1.54-1.36-3.73-.22-5.37l16.19-23.02c1.23-1.76,1.02-4.15-.49-5.67l-20.46-20.52c-1.6-1.59-4.14-1.77-5.94-.42l-20.21,15.18c-1.79,1.34-4.31,1.17-5.91-.4l-59.27-58.5c-1.58-1.56-1.77-4.02-.44-5.79l16.07-21.64c1.38-1.86,1.09-4.47-.66-5.99l-21.4-18.6c-1.79-1.56-4.48-1.47-6.16.18l-19.97,19.73c-1.65,1.61-4.26,1.74-6.04.29l-56.36-45.79-129.54,125.75,33.69,27.87c1.67,1.37,4.08,1.39,5.75.02l19.66-16.02c1.72-1.41,4.22-1.34,5.89.13l61.38,54.9c1.63,1.46,1.96,3.88.77,5.72l-12,18.45c-1.14,1.76-.9,4.05.58,5.54l21.98,22.04c1.57,1.57,4.07,1.77,5.87.47l21.57-15.63c1.89-1.36,4.51-1.07,6.04.65l57.76,64.62c1.43,1.61,1.52,3.98.19,5.67l-19.05,24.47c-1.29,1.67-1.24,4,.14,5.61l25.48,29.86,129.23-130.55-44.1-53.24h0ZM589.96,478.35c-24.79,0-44.88-19.86-44.88-44.41s20.09-44.38,44.88-44.38,44.86,19.86,44.86,44.38-20.11,44.41-44.86,44.41Z" />
  <path class="st0"
    d="M389.07,747.47l-87.17,85.71v-52.75l-114.95,56.79,57.71-113.08h-53.65l87.67-86.21c3.55,8.78,7.86,17.2,12.63,25.38,3.85,6.78,12.71,17.08,18.18,22.47l12.3-5.42c1.88-1.25,4.41-.95,5.88.7l12.58,12.35c1.37,1.54,1.57,3.84.36,5.53l-4.22,9.98c-.66.85-.86,1.95-.76,2.94l3.85,3.79c5.63,5.63,17.49,15.71,24.49,19.59,8.06,4.64,16.43,8.78,25.1,12.21h0Z" />
  <path class="st1"
    d="M624.38,633.08l-32.21,33.61c-.14-.14-.26-.26-.36-.4l-39.29-47.25c-2.08-2.44-1.98-6.05.1-8.44l15.24-17.45c1.5-1.62,1.5-4.15.1-5.81l-30.01-34.14c-1.5-1.75-4.12-2.07-6.07-.72l-17.01,12.49c-2.59,1.98-6.29,1.67-8.61-.63l-45.89-45.4c-2.31-2.26-2.59-5.95-.63-8.57l12.61-16.77c1.4-1.89,1.14-4.5-.63-6.05l-34.58-29.62c-1.67-1.49-4.24-1.49-5.88,0l-17.65,15.15c-2.44,2.12-6.02,2.12-8.5.1l-47.72-38.86c-.12-.14-.26-.23-.36-.36l31.64-35.27,33.68,27.87c1.68,1.38,4.09,1.39,5.76.01l19.67-16.02c1.72-1.4,4.21-1.34,5.89.14l61.38,54.89c1.64,1.46,1.96,3.88.77,5.73l-12.01,18.44c-1.14,1.76-.9,4.06.58,5.55l21.98,22.03c1.57,1.58,4.06,1.78,5.87.48l21.58-15.64c1.89-1.35,4.5-1.06,6.03.66l57.77,64.63c1.42,1.6,1.52,3.98.18,5.67l-19.04,24.47c-1.29,1.67-1.24,3.99.14,5.6l25.48,29.86h0Z" />
  <path class="st1"
    d="M428.79,721.09l-39.72,26.39c-8.67-3.44-17.04-7.57-25.11-12.22-7-3.88-18.87-13.96-24.49-19.6l-3.86-3.79c-.1-.99.1-2.09.76-2.95l4.23-9.98c1.21-1.69,1.01-3.98-.36-5.54l-12.57-12.35c-1.47-1.64-4.01-1.94-5.89-.7l-12.3,5.43c-5.48-5.38-14.32-15.68-18.18-22.46-4.77-8.18-9.09-16.61-12.63-25.38l24.24-41.42c4.26,12.67,10,24.66,16.65,36.16,3.86,6.76,8.61,12.99,14.03,18.4l13.12-6.27c1.86-1.18,4.39-.91,5.89.72l21.22,22.68c1.45,1.57,1.58,3.87.36,5.59l-4.06,9.64c-.63.91-.87,1.98-.73,2.97l3.8,3.8c5.66,5.63,12.04,10.49,19.02,14.38,11.62,6.62,23.8,12.26,36.56,16.5h0Z" />
  <path class="st1"
    d="M634.83,433.93c0,24.55-20.11,44.41-44.87,44.41s-44.88-19.86-44.88-44.41,20.08-44.37,44.88-44.37,44.87,19.86,44.87,44.37Z" />
</svg>